PathFileType	4	(X/Y/Z)	\\147.46.242.158\로컬 디스크 (e)\MOCAP Data\Iguana Capture\iguana\Project 2\Capture day 6 after broken\Session 1\Take06.trc
DataRate	CameraRate	NumFrames	NumMarkers	Units	OrigDataRate	OrigDataStartFrame	OrigNumFrames
120.0	120.0	12	23	mm	120.0	30	8064
Frame#	Time	ana:head1			ana:head2			ana:bone1			ana:bone2			ana:bone3			ana:tail1			ana:tail2			ana:tail3			ana:tail4			ana:Rforefoot1			ana:Rforefoot2			ana:Rforefoot3			ana:Lforefoot1			ana:Lforefoot2			ana:Lforefoot3			ana:RhindLeg1			ana:RhindLeg2			ana:RhindLeg3			ana:RhindLeg4			ana:LhindLeg1			ana:LhindLeg2			ana:LhindLeg3			ana:LhindLeg4			
		X1	Y1	Z1	X2	Y2	Z2	X3	Y3	Z3	X4	Y4	Z4	X5	Y5	Z5	X6	Y6	Z6	X7	Y7	Z7	X8	Y8	Z8	X9	Y9	Z9	X10	Y10	Z10	X11	Y11	Z11	X12	Y12	Z12	X13	Y13	Z13	X14	Y14	Z14	X15	Y15	Z15	X16	Y16	Z16	X17	Y17	Z17	X18	Y18	Z18	X19	Y19	Z19	X20	Y20	Z20	X21	Y21	Z21	X22	Y22	Z22	X23	Y23	Z23	

5985	49.867	91.56677	-393.63544	53.87767	99.70826	-388.79877	56.65956	118.40005	-374.04385	52.03281	141.32907	-356.55093	49.37077	165.05801	-335.30542	30.40529	184.03787	-314.68689	18.53170	196.35632	-278.29422	11.16621	192.97623	-240.04721	7.93495	185.15398	-206.71501	7.41800	106.70179	-368.49258	32.12131	105.10758	-358.28101	21.17921	95.39188	-362.44366	6.92641	118.30372	-384.43747	27.72105	124.65819	-386.10291	16.35013	109.81763	-380.70718	6.56954	154.93784	-331.24850	24.24552	138.68414	-329.65683	24.45235	145.34140	-324.35843	7.81704	134.53575	-325.01648	5.82274	172.27156	-345.37952	24.07493	178.79657	-361.54129	23.25316	188.70740	-363.02859	6.67791	186.93462	-375.91763	5.71777	
5986	49.875	91.83743	-393.54105	54.17295	99.85419	-388.81735	57.03619	118.78302	-373.91983	52.50210	141.64880	-356.45566	49.68681	165.12440	-335.23380	30.76413	184.20311	-314.50494	18.70612	196.53400	-278.29483	11.23455	193.00775	-240.05161	7.93805	185.15503	-206.58592	7.43817	107.19570	-368.64377	32.49356	105.45239	-358.46506	21.03652	96.02470	-362.30731	6.60548	118.80536	-385.16953	28.65448	124.66461	-385.00449	15.03336	109.71895	-381.19974	6.98719	155.00180	-331.19855	24.54361	138.98112	-329.64224	24.60437	145.03464	-324.04147	8.06539	134.49310	-324.93677	5.94458	172.43597	-345.22342	24.39427	179.05713	-361.46970	23.33079	188.63438	-362.92188	6.50624	186.93059	-375.82327	5.48183	
5987	49.883	92.23384	-393.31323	54.38885	99.95293	-388.77319	57.81924	118.85731	-373.63376	52.78261	142.06023	-356.31650	49.91251	165.19199	-335.18613	30.96641	184.37657	-314.40085	18.92462	196.66914	-278.27258	11.26967	193.00641	-240.02995	7.93933	185.17136	-206.61513	7.40997	107.20149	-368.78424	33.03784	105.66998	-358.74408	21.02485	95.50969	-362.61884	7.14844	119.16294	-385.49219	29.18699	124.39558	-385.22949	15.26366	109.76400	-381.28824	7.20358	155.12006	-331.09393	24.81731	138.79710	-329.81836	24.58318	144.71562	-323.97037	8.31438	134.55052	-324.90936	5.93104	172.62737	-345.11499	24.67482	179.28139	-361.44632	23.44796	188.63518	-362.93988	6.50574	186.98465	-375.82986	5.39820	
5988	49.892	92.61633	-393.26254	54.92990	99.70362	-388.84189	58.61676	119.00864	-373.56317	53.01124	142.38474	-356.11798	50.11736	165.32368	-335.04425	31.10188	184.53270	-314.34955	19.11181	196.73671	-278.24551	11.32631	193.00815	-240.01047	7.93963	185.22374	-206.63783	7.35756	106.65152	-368.91910	33.85509	105.70224	-359.07162	21.22681	94.82209	-363.09393	7.64955	119.38081	-385.58835	29.57787	124.53987	-385.06015	15.29988	109.86538	-381.18378	7.26977	155.05798	-331.17551	25.02735	138.43222	-330.06842	24.58519	144.55122	-324.23236	8.44645	134.77548	-324.87247	5.70584	172.74409	-345.03397	24.90912	179.49794	-361.35995	23.60468	188.76219	-363.08929	6.66632	187.06511	-376.01199	5.49979	
5989	49.900	92.83263	-393.45877	55.43721	100.46523	-389.14444	58.84875	119.27546	-373.64139	53.29771	142.30069	-356.24701	50.53667	165.54335	-334.55814	31.17671	184.69687	-314.29071	19.30535	196.81657	-278.19659	11.37333	193.03581	-240.00812	7.94587	185.24622	-206.70689	7.26428	107.38950	-368.73172	33.75955	105.64168	-359.42731	21.63211	94.66375	-363.37387	7.80839	119.55447	-385.61768	29.95353	124.41855	-385.27591	15.67976	110.00877	-381.02069	7.18283	154.50757	-331.58109	25.33572	138.33873	-330.07535	24.71817	143.96275	-324.26163	8.92450	135.20174	-324.79730	5.28492	172.84203	-344.94977	25.12440	179.65680	-361.25870	23.76747	188.79022	-363.09253	6.67035	187.09009	-375.95245	5.40708	
5990	49.908	92.96812	-393.75418	55.95556	101.18573	-389.04776	59.03830	119.60468	-373.80371	53.72131	142.37106	-356.41159	50.97810	165.64243	-334.23141	31.70076	184.85162	-314.08261	19.42592	196.92012	-278.11899	11.39974	193.03957	-239.99878	7.93768	185.19446	-206.75441	7.21091	107.32449	-369.00308	34.13123	105.71149	-359.72983	21.85700	94.70554	-363.55872	7.84606	119.72361	-385.69238	30.35562	124.53230	-384.93610	15.72836	110.35910	-380.67114	6.90527	154.19380	-331.46716	25.77153	138.25127	-329.95877	24.89473	144.75940	-324.38168	8.34391	134.84703	-324.89426	5.65468	172.93465	-344.88004	25.42762	179.78755	-361.10007	23.84746	188.71674	-362.96890	6.51705	187.09770	-375.56430	5.05019	
5991	49.917	93.27959	-393.54181	56.08572	101.56071	-388.97736	59.44874	119.89404	-373.87808	54.10763	142.54465	-356.35400	51.25103	165.74547	-334.17801	32.12368	185.05978	-313.69070	19.50602	197.05725	-278.03644	11.39628	193.00580	-239.97787	7.93456	185.22836	-206.72362	7.22305	106.95527	-369.53018	34.84518	105.76404	-359.99054	22.05012	94.78768	-363.78342	7.98375	119.82145	-385.83664	30.69625	124.54095	-385.03024	16.18019	110.57039	-380.59882	6.90609	154.18855	-331.28357	26.08677	138.16312	-329.83279	25.00165	145.55013	-324.69977	7.90029	134.61078	-324.92261	5.86145	173.05400	-344.84113	25.81294	179.94650	-360.94147	23.91176	188.71497	-362.92474	6.47968	187.14989	-375.41269	4.87082	
5992	49.925	93.58419	-393.64160	56.58636	101.73883	-388.96732	59.94592	120.15319	-373.87509	54.42382	142.95773	-356.02100	51.35990	165.80548	-334.33829	32.42877	185.07933	-313.49744	19.69258	197.13747	-277.99695	11.39961	192.97429	-239.94957	7.92997	185.34561	-206.72937	7.20191	106.97322	-369.73315	35.20705	105.69446	-360.23172	22.32109	94.76826	-363.96957	8.08698	119.88627	-385.93082	30.92982	124.20283	-386.09299	17.39758	110.61566	-380.68143	7.04944	154.40749	-331.06702	26.24986	138.17296	-329.75937	25.10536	145.76396	-324.80008	7.74345	134.61418	-324.96207	5.89406	173.20642	-344.73306	26.06250	180.07124	-360.80038	23.96993	188.69226	-362.90363	6.44092	187.19629	-375.44070	4.83468	
5993	49.933	93.71895	-393.96564	57.34177	101.97134	-389.19821	60.49853	120.42233	-373.92514	54.76642	143.13327	-355.76166	51.59603	165.78421	-334.47040	32.63221	184.94351	-313.54825	19.88300	197.13744	-277.95987	11.39399	192.96356	-239.93436	7.92401	185.38947	-206.71098	7.19546	107.11095	-369.72183	35.47742	105.66243	-360.50238	22.50309	94.71607	-364.16440	8.17305	120.02667	-385.98904	31.17030	123.93348	-386.68149	18.11851	110.64288	-380.73587	7.18341	155.10217	-330.64301	26.18221	138.31464	-329.53430	25.17772	145.59660	-324.66016	7.75657	134.57346	-324.95972	5.88274	173.33330	-344.60660	26.33914	180.15221	-360.66199	24.00456	188.72566	-362.96115	6.49728	187.22838	-375.61746	4.95535	
5994	49.942	93.90775	-394.14325	57.82449	102.14758	-389.34308	60.98201	120.65361	-374.10983	55.08242	143.10310	-355.68359	51.85714	165.77090	-334.48724	32.74652	184.95032	-313.43753	20.02756	197.17975	-277.95190	11.40458	192.96951	-239.94153	7.92958	185.40695	-206.67342	7.17010	107.35198	-369.78906	35.73865	105.61859	-360.81052	22.65085	94.71136	-364.37848	8.29308	120.24352	-385.93213	31.41680	123.85166	-386.79865	18.35216	110.71349	-380.84018	7.45340	155.22197	-330.77930	26.45992	138.67703	-329.14691	25.23441	145.46690	-324.57053	7.93076	134.48322	-324.91571	5.83446	173.36623	-344.60519	26.60713	180.21051	-360.53705	24.03755	188.83093	-363.09378	6.66392	187.25002	-375.79144	5.10952	
5995	49.950	94.14102	-394.43808	58.43757	102.20637	-389.47287	61.46121	120.87370	-374.29752	55.51027	143.01236	-355.69360	52.01095	165.78040	-334.32346	32.91927	184.96173	-313.22546	20.11358	197.24284	-277.95013	11.41740	192.98907	-239.94873	7.94462	185.41544	-206.64658	7.15781	107.44105	-370.00769	35.81587	105.54779	-361.23138	22.83085	94.83341	-364.58017	8.30873	120.39680	-385.79578	31.59279	123.88695	-386.81171	18.44991	110.78556	-380.96933	7.66803	154.78931	-331.20206	26.76576	138.97856	-328.94647	25.30710	145.27495	-324.45010	8.03963	134.46434	-324.88885	5.81177	173.39638	-344.54129	26.80172	180.29149	-360.46603	24.07695	188.83966	-363.10062	6.66769	187.25397	-375.48508	4.87189	
5996	49.958	94.38966	-394.50168	58.85054	102.31846	-389.51440	61.86096	121.03249	-374.29861	55.83163	142.98749	-355.76407	52.26233	165.73050	-334.03046	33.36684	184.56117	-313.23627	20.20270	197.25674	-277.94238	11.43697	193.00499	-239.93213	7.94803	185.46306	-206.61177	7.16236	107.54507	-370.23712	36.02866	105.58331	-361.55804	23.00480	94.91302	-364.75470	8.36055	120.48374	-386.13986	32.10316	124.09235	-386.50156	18.24053	110.82257	-381.02939	7.79235	154.61226	-331.33554	26.99894	139.02258	-329.04092	25.27985	145.53960	-324.66269	7.91846	134.46062	-324.87961	5.80536	173.42464	-344.38297	26.93161	180.37804	-360.38019	24.13571	188.75278	-362.97345	6.52795	187.24358	-375.51669	4.87367	
